<svg width="34" height="34" viewBox="0 0 34 34" fill="none" xmlns="http://www.w3.org/2000/svg">
<path d="M0.939976 8.36491L16.56 16.8533C16.835 16.9999 17.165 16.9999 17.44 16.8533L33.06 8.36491C33.3514 8.22102 33.528 7.91631 33.5079 7.59193C33.4879 7.26756 33.2752 6.98688 32.9683 6.87992L17.3483 0.499915C17.1251 0.408232 16.8748 0.408232 16.6516 0.499915L1.03164 6.87992C0.724762 6.98688 0.512042 7.26756 0.492019 7.59193C0.471996 7.91631 0.648581 8.22102 0.939976 8.36491Z" fill="#191919"/>
<path d="M32.9684 14.5433L29.6134 13.1133L17.4401 19.7316C17.1651 19.8783 16.8351 19.8783 16.5601 19.7316L4.38677 13.1133L1.03177 14.5433C0.74218 14.6953 0.560791 14.9954 0.560791 15.3224C0.560791 15.6495 0.74218 15.9496 1.03177 16.1016L16.6518 25.0849C16.9218 25.2501 17.2617 25.2501 17.5318 25.0849L33.1518 16.1016C33.4276 15.9181 33.5769 15.5952 33.5382 15.2662C33.4995 14.9372 33.2793 14.6578 32.9684 14.5433Z" fill="#191919"/>
<path d="M32.9684 22.6834L30.1084 21.4368L17.44 28.3301C17.165 28.4768 16.835 28.4768 16.56 28.3301L3.89169 21.4368L1.03169 22.6834C0.73384 22.8379 0.546875 23.1454 0.546875 23.4809C0.546875 23.8164 0.73384 24.124 1.03169 24.2784L16.6517 33.4451C16.9267 33.5918 17.2567 33.5918 17.5317 33.4451L33.1517 24.2784C33.4358 24.0923 33.5907 23.7618 33.5519 23.4244C33.5131 23.087 33.2873 22.8002 32.9684 22.6834Z" fill="#191919"/>
</svg>
