<svg width="34" height="34" viewBox="0 0 34 34" fill="none" xmlns="http://www.w3.org/2000/svg">
<path d="M11.5 0.5H4.16667C2.14162 0.5 0.5 2.14162 0.5 4.16667V11.5C0.5 13.525 2.14162 15.1667 4.16667 15.1667H11.5C13.525 15.1667 15.1667 13.525 15.1667 11.5V4.16667C15.1667 2.14162 13.525 0.5 11.5 0.5Z" fill="#191919"/>
<path d="M29.8333 0.5H22.4999C20.4749 0.5 18.8333 2.14162 18.8333 4.16667V11.5C18.8333 13.525 20.4749 15.1667 22.4999 15.1667H29.8333C31.8583 15.1667 33.4999 13.525 33.4999 11.5V4.16667C33.4999 2.14162 31.8583 0.5 29.8333 0.5Z" fill="#191919"/>
<path d="M11.5 18.8333H4.16667C2.14162 18.8333 0.5 20.4749 0.5 22.4999V29.8333C0.5 31.8583 2.14162 33.4999 4.16667 33.4999H11.5C13.525 33.4999 15.1667 31.8583 15.1667 29.8333V22.4999C15.1667 20.4749 13.525 18.8333 11.5 18.8333Z" fill="#191919"/>
<path d="M29.8333 18.8333H22.4999C20.4749 18.8333 18.8333 20.4749 18.8333 22.4999V29.8333C18.8333 31.8583 20.4749 33.4999 22.4999 33.4999H29.8333C31.8583 33.4999 33.4999 31.8583 33.4999 29.8333V22.4999C33.4999 20.4749 31.8583 18.8333 29.8333 18.8333Z" fill="#191919"/>
</svg>
