<svg width="30" height="42" viewBox="0 0 30 42" fill="none" xmlns="http://www.w3.org/2000/svg">
<path d="M13.3683 41.1667C13.1558 41.1664 12.9448 41.1292 12.745 41.0567C11.9517 40.7662 11.4596 39.9713 11.5533 39.1317L12.965 26.1334H2.16667C1.48795 26.1344 0.864196 25.7603 0.545395 25.1611C0.226595 24.562 0.264917 23.8357 0.645001 23.2734L15.11 1.64002C15.5807 0.943463 16.4648 0.656307 17.255 0.943351C18.0131 1.22479 18.4972 1.96964 18.4467 2.77668L17.035 15.8667H27.8333C28.5121 15.8657 29.1358 16.2397 29.4546 16.8389C29.7734 17.4381 29.7351 18.1644 29.355 18.7267L14.89 40.36C14.5485 40.8652 13.9781 41.1676 13.3683 41.1667Z" fill="#191919"/>
</svg>
