<svg width="38" height="36" viewBox="0 0 38 36" fill="none" xmlns="http://www.w3.org/2000/svg">
<path d="M29.1934 35.5001C28.9002 35.5012 28.611 35.4321 28.3501 35.2984L19.0001 30.4034L9.6501 35.2984C9.03068 35.6241 8.27986 35.5688 7.71489 35.1557C7.14991 34.7427 6.86936 34.0441 6.99177 33.3551L8.8251 23.0334L1.27177 15.7C0.791537 15.2208 0.615222 14.5156 0.813434 13.8667C1.03021 13.202 1.60621 12.7184 2.29843 12.62L12.7484 11.0984L17.3501 1.69338C17.6564 1.0609 18.2973 0.65918 19.0001 0.65918C19.7029 0.65918 20.3438 1.0609 20.6501 1.69338L25.3068 11.08L35.7568 12.6017C36.449 12.7001 37.025 13.1837 37.2418 13.8484C37.44 14.4972 37.2637 15.2025 36.7834 15.6817L29.2301 23.015L31.0634 33.3367C31.1971 34.0385 30.9109 34.754 30.3301 35.1701C29.9981 35.4027 29.5984 35.5187 29.1934 35.5001Z" fill="#191919"/>
</svg>
